<mxfile host="65bd71144e" pages="2">
    <diagram id="diagramid" name="Diagram">
        <mxGraphModel dx="830" dy="600" grid="1" gridSize="10" guides="1" tooltips="1" connect="1" arrows="1" fold="1" page="1" pageScale="1" pageWidth="827" pageHeight="1169" background="#474747" math="0" shadow="0">
            <root>
                <mxCell id="0"/>
                <mxCell id="1" parent="0"/>
                <mxCell id="27" value="" style="shape=note;whiteSpace=wrap;html=1;backgroundOutline=1;fontColor=#000000;darkOpacity=0.05;fillColor=none;strokeColor=#FF9933;fillStyle=solid;direction=west;gradientDirection=north;gradientColor=#FFF2A1;shadow=1;size=0;pointerEvents=1;fontSize=14;strokeWidth=7;" vertex="1" parent="1">
                    <mxGeometry x="160" y="240" width="1410" height="290" as="geometry"/>
                </mxCell>
                <mxCell id="19" style="edgeStyle=none;html=1;fontColor=#FFFFFF;fontStyle=1;fontSize=14;" edge="1" parent="1" source="2" target="3">
                    <mxGeometry relative="1" as="geometry"/>
                </mxCell>
                <mxCell id="2" value="ProducerFunction" style="outlineConnect=0;fontColor=#FFFFFF;gradientColor=#F78E04;gradientDirection=north;fillColor=#D05C17;strokeColor=#ffffff;dashed=0;verticalLabelPosition=bottom;verticalAlign=top;align=center;html=1;fontSize=14;fontStyle=1;aspect=fixed;shape=mxgraph.aws4.resourceIcon;resIcon=mxgraph.aws4.lambda;" parent="1" vertex="1">
                    <mxGeometry x="470" y="300" width="50" height="50" as="geometry"/>
                </mxCell>
                <mxCell id="21" style="edgeStyle=none;html=1;fontColor=#FFFFFF;fontStyle=1;fontSize=14;" edge="1" parent="1" source="3" target="6">
                    <mxGeometry relative="1" as="geometry"/>
                </mxCell>
                <mxCell id="3" value="ScoreBoardStream" style="outlineConnect=0;fontColor=#FFFFFF;gradientColor=#945DF2;gradientDirection=north;fillColor=#5A30B5;strokeColor=#ffffff;dashed=0;verticalLabelPosition=bottom;verticalAlign=top;align=center;html=1;fontSize=14;fontStyle=1;aspect=fixed;shape=mxgraph.aws4.resourceIcon;resIcon=mxgraph.aws4.kinesis;" parent="1" vertex="1">
                    <mxGeometry x="650" y="299.99666666666667" width="50" height="50" as="geometry"/>
                </mxCell>
                <mxCell id="20" style="edgeStyle=none;html=1;fontColor=#FFFFFF;fontStyle=1;fontSize=14;" edge="1" parent="1" source="4" target="2">
                    <mxGeometry relative="1" as="geometry"/>
                </mxCell>
                <mxCell id="4" value="EventRuleScheduledProducer" style="outlineConnect=0;fontColor=#FFFFFF;gradientColor=#F34482;gradientDirection=north;fillColor=#BC1356;strokeColor=#ffffff;dashed=0;verticalLabelPosition=bottom;verticalAlign=top;align=center;html=1;fontSize=14;fontStyle=1;aspect=fixed;shape=mxgraph.aws4.resourceIcon;resIcon=mxgraph.aws4.eventbridge;" parent="1" vertex="1">
                    <mxGeometry x="270" y="300" width="50" height="50" as="geometry"/>
                </mxCell>
                <mxCell id="22" style="edgeStyle=none;html=1;fontColor=#FFFFFF;fontStyle=1;fontSize=14;" edge="1" parent="1" source="6" target="8">
                    <mxGeometry relative="1" as="geometry"/>
                </mxCell>
                <mxCell id="23" style="edgeStyle=none;html=1;fontColor=#FFFFFF;fontStyle=1;fontSize=14;" edge="1" parent="1" source="6">
                    <mxGeometry relative="1" as="geometry">
                        <mxPoint x="845" y="410" as="targetPoint"/>
                    </mxGeometry>
                </mxCell>
                <mxCell id="6" value="ConsumerFunction" style="outlineConnect=0;fontColor=#FFFFFF;gradientColor=#F78E04;gradientDirection=north;fillColor=#D05C17;strokeColor=#ffffff;dashed=0;verticalLabelPosition=bottom;verticalAlign=top;align=center;html=1;fontSize=14;fontStyle=1;aspect=fixed;shape=mxgraph.aws4.resourceIcon;resIcon=mxgraph.aws4.lambda;" parent="1" vertex="1">
                    <mxGeometry x="820" y="299.99833333333333" width="50" height="50" as="geometry"/>
                </mxCell>
                <mxCell id="24" style="edgeStyle=none;html=1;fontColor=#FFFFFF;fontStyle=1;fontSize=14;" edge="1" parent="1" source="8" target="10">
                    <mxGeometry relative="1" as="geometry"/>
                </mxCell>
                <mxCell id="8" value="ScoreboardRawData" style="outlineConnect=0;fontColor=#FFFFFF;gradientColor=#4D72F3;gradientDirection=north;fillColor=#3334B9;strokeColor=#ffffff;dashed=0;verticalLabelPosition=bottom;verticalAlign=top;align=center;html=1;fontSize=14;fontStyle=1;aspect=fixed;shape=mxgraph.aws4.resourceIcon;resIcon=mxgraph.aws4.dynamodb;" parent="1" vertex="1">
                    <mxGeometry x="1000" y="300" width="50" height="50" as="geometry"/>
                </mxCell>
                <mxCell id="9" value="DLQConsumer" style="outlineConnect=0;fontColor=#FFFFFF;gradientColor=#F34482;gradientDirection=north;fillColor=#BC1356;strokeColor=#ffffff;dashed=0;verticalLabelPosition=bottom;verticalAlign=top;align=center;html=1;fontSize=14;fontStyle=1;aspect=fixed;shape=mxgraph.aws4.resourceIcon;resIcon=mxgraph.aws4.sqs;" parent="1" vertex="1">
                    <mxGeometry x="820" y="420" width="50" height="50" as="geometry"/>
                </mxCell>
                <mxCell id="25" style="edgeStyle=none;html=1;fontColor=#FFFFFF;fontStyle=1;fontSize=14;" edge="1" parent="1" source="10" target="12">
                    <mxGeometry relative="1" as="geometry"/>
                </mxCell>
                <mxCell id="26" style="edgeStyle=none;html=1;fontColor=#FFFFFF;fontStyle=1;fontSize=14;" edge="1" parent="1" source="10" target="11">
                    <mxGeometry relative="1" as="geometry"/>
                </mxCell>
                <mxCell id="10" value="SummarizeDataFunction" style="outlineConnect=0;fontColor=#FFFFFF;gradientColor=#F78E04;gradientDirection=north;fillColor=#D05C17;strokeColor=#ffffff;dashed=0;verticalLabelPosition=bottom;verticalAlign=top;align=center;html=1;fontSize=14;fontStyle=1;aspect=fixed;shape=mxgraph.aws4.resourceIcon;resIcon=mxgraph.aws4.lambda;" parent="1" vertex="1">
                    <mxGeometry x="1200" y="300" width="50" height="50" as="geometry"/>
                </mxCell>
                <mxCell id="11" value="ScoreboardSummedUpData" style="outlineConnect=0;fontColor=#FFFFFF;gradientColor=#4D72F3;gradientDirection=north;fillColor=#3334B9;strokeColor=#ffffff;dashed=0;verticalLabelPosition=bottom;verticalAlign=top;align=center;html=1;fontSize=14;fontStyle=1;aspect=fixed;shape=mxgraph.aws4.resourceIcon;resIcon=mxgraph.aws4.dynamodb;" parent="1" vertex="1">
                    <mxGeometry x="1420" y="300" width="50" height="50" as="geometry"/>
                </mxCell>
                <mxCell id="12" value="DLQSummarize" style="outlineConnect=0;fontColor=#FFFFFF;gradientColor=#F34482;gradientDirection=north;fillColor=#BC1356;strokeColor=#ffffff;dashed=0;verticalLabelPosition=bottom;verticalAlign=top;align=center;html=1;fontSize=14;fontStyle=1;aspect=fixed;shape=mxgraph.aws4.resourceIcon;resIcon=mxgraph.aws4.sqs;" parent="1" vertex="1">
                    <mxGeometry x="1200" y="425" width="50" height="50" as="geometry"/>
                </mxCell>
                <mxCell id="28" value="" style="shape=note;whiteSpace=wrap;html=1;backgroundOutline=1;fontColor=#000000;darkOpacity=0.05;fillColor=none;strokeColor=#FF9933;fillStyle=solid;direction=west;gradientDirection=north;gradientColor=#FFF2A1;shadow=1;size=0;pointerEvents=1;fontSize=14;strokeWidth=7;" vertex="1" parent="1">
                    <mxGeometry x="160" y="630" width="1410" height="290" as="geometry"/>
                </mxCell>
                <mxCell id="30" style="edgeStyle=none;html=1;fontSize=14;fontColor=#FFFFFF;" edge="1" parent="1" source="13" target="18">
                    <mxGeometry relative="1" as="geometry"/>
                </mxCell>
                <mxCell id="13" value="RestApiScoreboard" style="outlineConnect=0;fontColor=#FFFFFF;gradientColor=#945DF2;gradientDirection=north;fillColor=#5A30B5;strokeColor=#ffffff;dashed=0;verticalLabelPosition=bottom;verticalAlign=top;align=center;html=1;fontSize=14;fontStyle=1;aspect=fixed;shape=mxgraph.aws4.resourceIcon;resIcon=mxgraph.aws4.api_gateway;" parent="1" vertex="1">
                    <mxGeometry x="560" y="740" width="50" height="50" as="geometry"/>
                </mxCell>
                <mxCell id="33" style="edgeStyle=none;html=1;fontSize=14;fontColor=#FFFFFF;" edge="1" parent="1" source="18">
                    <mxGeometry relative="1" as="geometry">
                        <mxPoint x="1445" y="370" as="targetPoint"/>
                        <Array as="points">
                            <mxPoint x="1445" y="770"/>
                        </Array>
                    </mxGeometry>
                </mxCell>
                <mxCell id="18" value="QueryFunction" style="outlineConnect=0;fontColor=#FFFFFF;gradientColor=#F78E04;gradientDirection=north;fillColor=#D05C17;strokeColor=#ffffff;dashed=0;verticalLabelPosition=bottom;verticalAlign=top;align=center;html=1;fontSize=14;fontStyle=1;aspect=fixed;shape=mxgraph.aws4.resourceIcon;resIcon=mxgraph.aws4.lambda;" parent="1" vertex="1">
                    <mxGeometry x="827" y="739.9955555555556" width="50" height="50" as="geometry"/>
                </mxCell>
            </root>
        </mxGraphModel>
    </diagram>
</mxfile>